<svg width="50" height="50" viewBox="0 0 50 50" fill="none" xmlns="http://www.w3.org/2000/svg">
<g clip-path="url(#clip0_234_493)">
<path d="M23.5616 50.0013C20.0953 50.0013 19.4713 46.7638 18.7407 43.0155C18.3545 40.6722 17.741 38.3723 16.9089 36.1487L18.6194 35.456C19.4993 37.7872 20.1482 40.1997 20.5565 42.6585C21.3311 46.6435 21.7911 48.1492 23.5656 48.1492C25.284 48.1492 26.076 44.8943 26.7759 42.0233C27.5758 38.7229 28.3384 35.6044 30.7755 35.6044V37.4552C29.7929 37.4552 29.117 40.2313 28.5744 42.4605C27.7078 45.9962 26.7279 50.0013 23.5616 50.0013Z" fill="#53C2EF"/>
<path d="M37.9678 49.9973C34.8015 49.9973 33.8256 45.9856 32.9657 42.4592C32.4231 40.2287 31.7472 37.4539 30.7646 37.4539V35.6031C33.1964 35.6031 33.9549 38.7202 34.7642 42.0219C35.4641 44.893 36.256 48.1492 37.9745 48.1492C39.7477 48.1492 40.2089 46.6435 40.9835 42.6598C41.4661 39.5527 42.3878 36.5304 43.7206 33.6841C46.6003 27.9981 48.1588 23.874 48.1588 18.3659C48.1588 13.3258 45.1911 10.3169 40.2196 10.3169C38.1672 10.3102 36.132 10.6913 34.2202 11.4402L33.6083 9.70179C35.7156 8.8778 37.9592 8.46083 40.2209 8.47285C46.1643 8.47285 50.0039 12.3589 50.0039 18.3685C50.0039 24.219 48.3027 28.7229 45.3657 34.5253C44.108 37.2179 43.242 40.0775 42.794 43.0168C42.0594 46.7625 41.4288 49.9973 37.9678 49.9973ZM15.2609 35.9414H10.6814C10.4367 35.9414 10.2021 35.8439 10.0291 35.6704C9.85605 35.4968 9.75885 35.2615 9.75885 35.016V33.1185C9.17328 32.9337 8.60495 32.6979 8.06036 32.4137L6.72717 33.751C6.55419 33.9243 6.31971 34.0216 6.07524 34.0216C5.83077 34.0216 5.59629 33.9243 5.42331 33.751L2.18632 30.5041C2.10062 30.4183 2.03263 30.3164 1.98624 30.2042C1.93986 30.092 1.91598 29.9717 1.91598 29.8502C1.91598 29.7288 1.93986 29.6085 1.98624 29.4963C2.03263 29.3841 2.10062 29.2821 2.18632 29.1963L3.51951 27.859C3.23635 27.3123 3.00127 26.7418 2.81692 26.154H0.923789C0.802636 26.154 0.682669 26.1301 0.570737 26.0836C0.458806 26.0371 0.357103 25.9689 0.271435 25.883C0.185766 25.7971 0.11781 25.6951 0.071447 25.5828C0.0250836 25.4705 0.0012207 25.3502 0.0012207 25.2287V20.6379C0.0012207 20.3924 0.0984196 20.1571 0.271435 19.9835C0.44445 19.81 0.679109 19.7125 0.923789 19.7125H2.81692C3.00136 19.1248 3.23644 18.5543 3.51951 18.0075L2.18632 16.6702C2.10062 16.5844 2.03263 16.4825 1.98624 16.3703C1.93986 16.2581 1.91598 16.1378 1.91598 16.0163C1.91598 15.8948 1.93986 15.7746 1.98624 15.6624C2.03263 15.5501 2.10062 15.4482 2.18632 15.3624L5.42331 12.1155C5.59953 11.9485 5.83279 11.8555 6.07524 11.8555C6.31769 11.8555 6.55095 11.9485 6.72717 12.1155L8.06036 13.4528C8.60504 13.1688 9.17335 12.933 9.75885 12.7481V10.8492C9.75885 10.6037 9.85605 10.3684 10.0291 10.1948C10.2021 10.0213 10.4367 9.92377 10.6814 9.92377H15.2596C15.5043 9.92377 15.7389 10.0213 15.9119 10.1948C16.085 10.3684 16.1822 10.6037 16.1822 10.8492V12.7481C16.7681 12.9331 17.3368 13.1689 17.882 13.4528L19.2152 12.1155C19.3886 11.9433 19.6231 11.8471 19.8671 11.8481C20.1111 11.8472 20.3455 11.9434 20.519 12.1155L23.756 15.3624C23.9288 15.5359 24.0258 15.7711 24.0258 16.0163C24.0258 16.2615 23.9288 16.4967 23.756 16.6702L22.4228 18.0075C22.7066 18.5542 22.9421 19.1247 23.1268 19.7125H25.0186C25.2632 19.7125 25.4979 19.81 25.6709 19.9835C25.8439 20.1571 25.9411 20.3924 25.9411 20.6379V25.23C25.9411 25.4754 25.8439 25.7108 25.6709 25.8843C25.4979 26.0579 25.2632 26.1554 25.0186 26.1554H23.1268C22.9421 26.7432 22.7066 27.3137 22.4228 27.8604L23.756 29.1976C23.9288 29.3711 24.0258 29.6063 24.0258 29.8516C24.0258 30.0968 23.9288 30.332 23.756 30.5055L20.519 33.7523C20.3461 33.9256 20.1116 34.0229 19.8671 34.0229C19.6226 34.0229 19.3882 33.9256 19.2152 33.7523L17.882 32.4151C17.3369 32.6991 16.7681 32.9349 16.1822 33.1198V35.0187C16.1822 35.2641 16.085 35.4995 15.9119 35.6731C15.7389 35.8466 15.5043 35.9441 15.2596 35.9441L15.2609 35.9414ZM11.6053 34.0893H14.3384V32.4137C14.3383 32.2059 14.408 32.0042 14.5361 31.8409C14.6643 31.6776 14.8435 31.5624 15.0449 31.5138C15.9322 31.2997 16.7806 30.9478 17.5593 30.4707C17.7358 30.3623 17.9435 30.3165 18.149 30.3408C18.3546 30.365 18.546 30.4579 18.6926 30.6044L19.8738 31.7879L21.8056 29.8502L20.6257 28.6654C20.4796 28.5184 20.387 28.3264 20.3628 28.1202C20.3386 27.9141 20.3843 27.7058 20.4924 27.5287C20.9678 26.7475 21.3186 25.8965 21.5323 25.0067C21.5808 24.8047 21.6956 24.6249 21.8584 24.4963C22.0212 24.3677 22.2223 24.2979 22.4295 24.2979H24.1V21.5566H22.4295C22.2223 21.5566 22.0212 21.4868 21.8584 21.3582C21.6956 21.2296 21.5808 21.0498 21.5323 20.8478C21.3188 19.9575 20.9679 19.1061 20.4924 18.3244C20.3843 18.1474 20.3386 17.9391 20.3628 17.7329C20.387 17.5268 20.4796 17.3348 20.6257 17.1877L21.8056 16.0043L19.8738 14.0653L18.6926 15.2501C18.5461 15.3968 18.3547 15.4898 18.1491 15.5141C17.9435 15.5383 17.7357 15.4924 17.5593 15.3838C16.7806 14.9067 15.9322 14.5547 15.0449 14.3407C14.8438 14.2918 14.6649 14.1765 14.5369 14.0132C14.409 13.85 14.3395 13.6484 14.3397 13.4408V11.7652H11.6066V13.4408C11.6068 13.6484 11.5373 13.85 11.4094 14.0132C11.2815 14.1765 11.1026 14.2918 10.9014 14.3407C10.0142 14.5548 9.16577 14.9067 8.38699 15.3838C8.21059 15.4924 8.00285 15.5383 7.79726 15.5141C7.59167 15.4898 7.40022 15.3968 7.25378 15.2501L6.07257 14.0653L4.14078 16.0043L5.32065 17.1877C5.46696 17.3346 5.55969 17.5267 5.58388 17.7329C5.60806 17.9391 5.5623 18.1475 5.45397 18.3244C4.97842 19.1051 4.62754 19.9556 4.41408 20.8451C4.36564 21.0469 4.25095 21.2266 4.08847 21.3551C3.92598 21.4836 3.72512 21.5537 3.51818 21.5539H1.84636V24.2966H3.51818C3.72512 24.2968 3.92598 24.3668 4.08847 24.4954C4.25095 24.6239 4.36564 24.8035 4.41408 25.0053C4.62726 25.8945 4.97815 26.7446 5.45397 27.5247C5.56241 27.7019 5.60822 27.9105 5.58403 28.1169C5.55985 28.3234 5.46707 28.5156 5.32065 28.6627L4.14078 29.8475L6.07391 31.7866L7.25511 30.6031C7.40168 30.4566 7.59311 30.3637 7.79864 30.3394C8.00417 30.3152 8.21186 30.3609 8.38833 30.4694C9.16663 30.9464 10.0146 31.2984 10.9014 31.5124C11.1028 31.5611 11.282 31.6763 11.4102 31.8396C11.5384 32.0028 11.6081 32.2046 11.608 32.4124L11.6053 34.0893Z" fill="#53C2EF"/>
<path d="M27.8117 17.1343C27.6908 17.1349 27.571 17.1116 27.4592 17.0657C27.3473 17.0198 27.2456 16.9522 27.1598 16.8668L26.3879 16.0939C25.8997 16.3312 25.3875 16.515 24.86 16.6422L24.4281 14.8436C25.0077 14.7037 25.562 14.4736 26.0706 14.1616C26.247 14.0531 26.4547 14.0074 26.6603 14.0316C26.8658 14.0559 27.0572 14.1487 27.2038 14.2953L27.8104 14.9037L28.7289 13.9824L28.1223 13.3726C27.976 13.2257 27.8833 13.0337 27.8591 12.8274C27.8349 12.6212 27.8807 12.4128 27.989 12.2359C28.3001 11.7253 28.5295 11.1689 28.669 10.5871C28.7175 10.385 28.8323 10.2053 28.9951 10.0767C29.1579 9.94813 29.359 9.87826 29.5662 9.87833H30.4248V8.5745H29.5715C29.3643 8.57457 29.1632 8.50469 29.0004 8.37613C28.8377 8.24756 28.7228 8.06779 28.6743 7.86576C28.5351 7.28384 28.3056 6.72746 27.9944 6.21692C27.886 6.03998 27.8403 5.83161 27.8645 5.62539C27.8886 5.41918 27.9814 5.22714 28.1277 5.08025L28.7343 4.4718L27.8157 3.55043L27.2091 4.15888C27.0627 4.30564 26.8712 4.39865 26.6656 4.42291C26.46 4.44717 26.2523 4.40127 26.0759 4.29261C25.5668 3.9804 25.0121 3.74984 24.4321 3.60927C24.2311 3.56042 24.0524 3.44528 23.9245 3.28232C23.7966 3.11936 23.727 2.91803 23.7268 2.71063V1.84944H22.427V2.71063C22.4271 2.91826 22.3576 3.1199 22.2297 3.28313C22.1018 3.44636 21.9229 3.5617 21.7217 3.61061C21.1407 3.75102 20.5852 3.98158 20.0752 4.29395C19.8988 4.4026 19.6911 4.4485 19.4855 4.42424C19.2799 4.39998 19.0884 4.30698 18.942 4.16022L18.3354 3.55177L17.4168 4.47447L18.0234 5.08293C18.17 5.22991 18.263 5.42219 18.2872 5.6287C18.3114 5.83521 18.2654 6.04386 18.1567 6.22093C17.8461 6.73114 17.6171 7.28706 17.4781 7.86843C17.4296 8.07046 17.3148 8.25023 17.152 8.3788C16.9892 8.50737 16.7881 8.57725 16.5809 8.57718H15.7223V9.14685H13.8772V7.6518C13.8772 7.40637 13.9744 7.17099 14.1474 6.99745C14.3204 6.82391 14.5551 6.72641 14.7998 6.72641H15.8903C15.9872 6.44528 16.1007 6.17021 16.2303 5.90266L15.4597 5.12973C15.2869 4.95622 15.1899 4.72103 15.1899 4.47581C15.1899 4.23059 15.2869 3.9954 15.4597 3.82189L17.6835 1.59135C17.8597 1.42433 18.0929 1.33128 18.3354 1.33128C18.5778 1.33128 18.8111 1.42433 18.9873 1.59135L19.7579 2.36428C20.0252 2.23456 20.2999 2.1207 20.5805 2.02328V0.929409C20.5805 0.683983 20.6777 0.448609 20.8507 0.275066C21.0237 0.101524 21.2584 0.00402832 21.503 0.00402832H24.6387C24.8834 0.00402832 25.1181 0.101524 25.2911 0.275066C25.4641 0.448609 25.5613 0.683983 25.5613 0.929409V2.02328C25.8415 2.1206 26.1157 2.23446 26.3825 2.36428L27.1544 1.59135C27.3279 1.41923 27.5624 1.32306 27.8064 1.3239C28.0504 1.32306 28.2848 1.41923 28.4583 1.59135L30.6807 3.82189C30.7664 3.90772 30.8344 4.00965 30.8808 4.12186C30.9272 4.23406 30.9511 4.35434 30.9511 4.47581C30.9511 4.59728 30.9272 4.71756 30.8808 4.82977C30.8344 4.94197 30.7664 5.04391 30.6807 5.12973L29.9102 5.90266C30.0396 6.17071 30.1532 6.44622 30.2501 6.72775H31.342C31.5867 6.72775 31.8213 6.82525 31.9944 6.99879C32.1674 7.17233 32.2646 7.40771 32.2646 7.65313V10.8064C32.2646 11.0518 32.1674 11.2872 31.9944 11.4607C31.8213 11.6343 31.5867 11.7318 31.342 11.7318H30.2501C30.1534 12.013 30.0399 12.2881 29.9102 12.5555L30.6821 13.3298C30.7678 13.4156 30.8358 13.5175 30.8821 13.6297C30.9285 13.742 30.9524 13.8622 30.9524 13.9837C30.9524 14.1052 30.9285 14.2255 30.8821 14.3377C30.8358 14.4499 30.7678 14.5518 30.6821 14.6376L28.4596 16.8668C28.2874 17.0383 28.0544 17.1345 27.8117 17.1343Z" fill="#53C2EF"/>
<path d="M23.0721 13.0743C22.3135 13.0743 21.5719 12.8487 20.9412 12.4259C20.3104 12.0032 19.8188 11.4023 19.5285 10.6993C19.2382 9.99634 19.1622 9.22278 19.3102 8.47648C19.4582 7.73018 19.8235 7.04466 20.36 6.50661C20.8964 5.96855 21.5798 5.60214 22.3238 5.45369C23.0679 5.30524 23.8391 5.38143 24.5399 5.67262C25.2408 5.96381 25.8398 6.45693 26.2613 7.08961C26.6828 7.72229 26.9077 8.46613 26.9077 9.22705C26.9067 10.2471 26.5022 11.225 25.7831 11.9463C25.064 12.6676 24.0891 13.0733 23.0721 13.0743ZM23.0721 7.22919C22.6785 7.22919 22.2937 7.34625 21.9664 7.56557C21.6391 7.78489 21.384 8.09663 21.2333 8.46137C21.0826 8.8261 21.0431 9.22747 21.1198 9.61472C21.1965 10.002 21.386 10.3577 21.6642 10.637C21.9424 10.9163 22.297 11.1065 22.683 11.1837C23.069 11.2609 23.4692 11.2215 23.8329 11.0706C24.1966 10.9197 24.5076 10.664 24.7265 10.3359C24.9454 10.0077 25.0623 9.62187 25.0626 9.22705C25.0601 8.6983 24.8496 8.1919 24.4769 7.81801C24.1041 7.44412 23.5993 7.23165 23.0721 7.22919ZM12.9719 29.5828C11.6603 29.5828 10.3782 29.1927 9.28772 28.4618C8.19721 27.7309 7.34726 26.6921 6.84536 25.4767C6.34345 24.2613 6.21213 22.9239 6.468 21.6336C6.72387 20.3433 7.35544 19.1581 8.28284 18.2279C9.21024 17.2977 10.3918 16.6642 11.6782 16.4075C12.9645 16.1509 14.2978 16.2826 15.5096 16.7861C16.7213 17.2895 17.7569 18.142 18.4856 19.2359C19.2142 20.3297 19.6032 21.6157 19.6032 22.9312C19.601 24.6947 18.9017 26.3853 17.6586 27.6322C16.4154 28.8792 14.7299 29.5806 12.9719 29.5828ZM12.9719 18.1292C12.0253 18.1292 11.0999 18.4107 10.3128 18.9382C9.52575 19.4657 8.91229 20.2155 8.55004 21.0927C8.18779 21.97 8.09301 22.9352 8.27768 23.8665C8.46236 24.7977 8.91819 25.6532 9.58755 26.3246C10.2569 26.9959 11.1097 27.4532 12.0381 27.6384C12.9666 27.8237 13.9289 27.7286 14.8035 27.3652C15.678 27.0019 16.4255 26.3865 16.9514 25.5971C17.4773 24.8076 17.758 23.8794 17.758 22.9299C17.7563 21.6572 17.2514 20.4372 16.3542 19.5372C15.4571 18.6373 14.2407 18.1309 12.9719 18.1292Z" fill="#53C2EF"/>
</g>
<defs>
<clipPath id="clip0_234_493">
<rect width="50" height="50" fill="white"/>
</clipPath>
</defs>
</svg>
