<svg width="50" height="50" viewBox="0 0 50 50" fill="none" xmlns="http://www.w3.org/2000/svg">
<g clip-path="url(#clip0_234_4388)">
<path d="M18.9414 44.1627C15.8008 44.1627 15.2289 41.2063 14.5669 37.7826C14.1598 35.0985 13.3735 32.4871 12.232 30.0283C9.56615 24.7293 8.02235 20.6163 8.02235 15.2734C7.99635 13.7875 8.28824 12.3134 8.87808 10.9517L10.4023 11.6541C9.91313 12.7951 9.67302 14.029 9.69825 15.272C9.69825 20.3021 11.1143 24.0686 13.7265 29.2628C14.9362 31.8619 15.773 34.6216 16.2116 37.4588C16.9157 41.0971 17.333 42.4728 18.9428 42.4728C20.5026 42.4728 21.2218 39.5003 21.8562 36.8779C22.582 33.8644 23.2744 31.0179 25.4809 31.0179V32.7078C24.5896 32.7078 23.9763 35.2422 23.4827 37.2793C22.7011 40.5053 21.8156 44.1627 18.9414 44.1627Z" fill="#53C2EF"/>
<path d="M25.4794 9.66391C24.4146 9.61538 23.3665 9.37809 22.3831 8.96291C20.638 8.26837 18.7777 7.91585 16.9019 7.92422V6.2336C18.9673 6.22508 21.0158 6.61003 22.9398 7.36824C23.7457 7.71636 24.6051 7.92131 25.4801 7.97403L25.4794 9.66391Z" fill="#53C2EF"/>
<path d="M33.0169 12.7346C31.9689 10.2074 27.3368 9.66391 25.5513 9.66391H25.4787L25.4722 7.97403H25.5056C26.3711 7.91602 27.2206 7.7107 28.0183 7.36678C29.9421 6.6086 31.9903 6.22365 34.0556 6.23213C34.74 6.23015 35.4231 6.2912 36.0965 6.41453L35.7917 8.07584C35.2188 7.97124 34.6377 7.9195 34.0556 7.92129C32.6025 7.9056 31.1558 8.11938 29.7682 8.5549C31.709 9.08963 33.7456 10.1159 34.5585 12.0797L33.0169 12.7346Z" fill="#53C2EF"/>
<path d="M32.0183 44.1627C29.1434 44.1627 28.2593 40.5053 27.4776 37.2771C26.9848 35.24 26.3715 32.7056 25.4795 32.7056V31.0157C27.6867 31.0157 28.3754 33.8622 29.1042 36.8757C29.7385 39.4981 30.4578 42.4706 32.0175 42.4706C33.6267 42.4706 34.0447 41.0957 34.7487 37.4566C35.187 34.6193 36.0238 31.8595 37.2339 29.2606C39.8468 24.0686 41.2621 20.3014 41.2621 15.2698C41.2647 14.6396 41.2091 14.0106 41.0959 13.3909L42.7413 13.0759C42.874 13.8007 42.9394 14.5364 42.9366 15.2734C42.9366 20.6163 41.3928 24.7293 38.7269 30.0283C37.5855 32.4874 36.7995 35.099 36.3927 37.7833C35.73 41.2056 35.1588 44.1627 32.0183 44.1627Z" fill="#53C2EF"/>
<path d="M41.7612 49.9993C41.6321 49.9992 41.5048 49.9691 41.3892 49.9113C41.2736 49.8534 41.1728 49.7694 41.0946 49.6657C41.0165 49.562 40.9632 49.4415 40.9388 49.3136C40.9144 49.1857 40.9196 49.0539 40.9541 48.9283C40.9672 48.88 42.27 43.9077 39.1156 41.845C38.9484 41.7348 38.8256 41.5679 38.7695 41.3744C38.7134 41.1809 38.7277 40.9736 38.8098 40.7898C38.8919 40.606 39.0364 40.4579 39.2171 40.3721C39.3979 40.2864 39.6031 40.2686 39.7957 40.3221C43.4168 41.3403 46.2438 37.061 46.2721 37.0178C46.3817 36.85 46.5471 36.7271 46.7384 36.6712C46.9297 36.6153 47.1345 36.63 47.3161 36.7127C47.4976 36.7955 47.644 36.9408 47.7289 37.1226C47.8139 37.3045 47.8318 37.5109 47.7796 37.7049C47.7665 37.7533 46.4637 42.7255 49.618 44.7882C49.7859 44.8981 49.9093 45.0651 49.9657 45.2589C50.0222 45.4526 50.0081 45.6604 49.9259 45.8446C49.8437 46.0287 49.6988 46.1771 49.5176 46.2628C49.3364 46.3485 49.1308 46.3659 48.938 46.3118C45.3038 45.2915 42.4906 49.5707 42.4623 49.6147C42.3864 49.7326 42.2825 49.8296 42.1601 49.8967C42.0377 49.9639 41.9005 49.9991 41.7612 49.9993ZM41.7416 42.1226C42.5596 43.4546 42.9682 45.0013 42.9159 46.5675C44.044 45.4905 45.4629 44.775 46.9935 44.5113C46.1753 43.1792 45.7664 41.6322 45.8185 40.0658C44.6902 41.1416 43.2717 41.8562 41.7416 42.1197V42.1226Z" fill="#53C2EF"/>
<path d="M6.44291 41.6546C6.28377 41.6546 6.12794 41.6088 5.99371 41.5225C5.85949 41.4362 5.75244 41.313 5.68517 41.1675C5.66847 41.1316 3.89532 37.4273 0.947829 37.8185C0.74983 37.8442 0.549253 37.7976 0.382233 37.6873C0.215212 37.5769 0.092732 37.41 0.036873 37.2166C-0.0189861 37.0232 -0.00454611 36.816 0.0775733 36.6323C0.159693 36.4487 0.304091 36.3007 0.484764 36.215C3.19928 34.9405 2.70356 30.8633 2.69775 30.8216C2.67135 30.6214 2.71693 30.4182 2.82622 30.249C2.93552 30.0798 3.10129 29.9557 3.29347 29.8992C3.48565 29.8428 3.69149 29.8577 3.87369 29.9414C4.05588 30.025 4.20236 30.1717 4.28654 30.355C4.30323 30.3901 6.07348 34.0951 9.02387 33.704C9.22236 33.6771 9.42382 33.7229 9.59169 33.8331C9.75955 33.9434 9.88267 34.1107 9.93871 34.3047C9.99474 34.4988 9.97998 34.7066 9.89709 34.8906C9.81419 35.0746 9.66866 35.2225 9.48694 35.3074C6.78912 36.5739 7.26887 40.6606 7.27395 40.7016C7.29916 40.9016 7.25276 41.1041 7.14311 41.2727C7.03346 41.4412 6.86776 41.5647 6.67588 41.6209C6.60015 41.643 6.52175 41.6543 6.44291 41.6546ZM2.97646 36.352C4.02844 36.7341 4.96594 37.3817 5.69967 38.2331C5.86592 37.1171 6.31216 36.0626 6.99597 35.1697C5.94388 34.7874 5.00619 34.1399 4.27203 33.2887C4.10596 34.4049 3.65971 35.4597 2.97573 36.3527L2.97646 36.352Z" fill="#53C2EF"/>
<path d="M12.7698 12.6094C12.6106 12.6095 12.4548 12.5637 12.3205 12.4774C12.1863 12.3911 12.0793 12.2679 12.0121 12.1222C11.9946 12.0871 10.2201 8.38648 7.27474 8.77324C7.07674 8.79894 6.87614 8.75242 6.70912 8.64207C6.5421 8.53172 6.41964 8.36478 6.36378 8.17136C6.30792 7.97794 6.32235 7.77074 6.40447 7.5871C6.48659 7.40347 6.631 7.25548 6.81167 7.16979C9.52618 5.89523 9.02972 1.81811 9.02464 1.77636C8.99824 1.57613 9.04381 1.37298 9.15311 1.20376C9.2624 1.03453 9.42818 0.910452 9.62036 0.854012C9.81254 0.797572 10.0184 0.812514 10.2006 0.896128C10.3828 0.979742 10.5292 1.12649 10.6134 1.30975C10.6301 1.34491 12.4033 5.05065 15.3508 4.65876C15.5492 4.63186 15.7507 4.67768 15.9186 4.78791C16.0864 4.89813 16.2096 5.06546 16.2656 5.2595C16.3216 5.45354 16.3069 5.66143 16.224 5.84541C16.1411 6.0294 15.9956 6.17728 15.8138 6.26221C13.116 7.52871 13.5958 11.6154 13.6008 11.6564C13.626 11.8564 13.5796 12.0589 13.47 12.2275C13.3603 12.396 13.1947 12.5195 13.0028 12.5757C12.9271 12.5978 12.8486 12.6091 12.7698 12.6094ZM9.30335 7.30896C10.3553 7.69117 11.2928 8.33874 12.0266 9.19003C12.1926 8.07415 12.6386 7.01965 13.3221 6.1267C12.2703 5.74435 11.3328 5.0968 10.5989 4.24563C10.4329 5.36152 9.98693 6.41603 9.30335 7.30896Z" fill="#53C2EF"/>
<path d="M40.6275 12.1493C40.5979 12.1495 40.5684 12.148 40.5389 12.1449C40.3402 12.1236 40.1555 12.0313 40.0182 11.8846C39.881 11.7379 39.8003 11.5465 39.7906 11.345C39.7906 11.3055 39.546 7.19758 36.6697 6.43138C36.4765 6.37959 36.308 6.25976 36.1947 6.09355C36.0814 5.92734 36.0307 5.7257 36.0518 5.52508C36.0729 5.32446 36.1645 5.13808 36.3099 4.99961C36.4552 4.86114 36.6449 4.77972 36.8446 4.77006C39.8349 4.63162 40.9091 0.66804 40.9214 0.629949C40.9723 0.434591 41.0908 0.264092 41.2556 0.149375C41.4203 0.0346581 41.6203 -0.0166793 41.8193 0.00467301C42.0183 0.0260253 42.2032 0.118655 42.3403 0.265759C42.4775 0.412864 42.5578 0.604703 42.5668 0.806484C42.5668 0.846039 42.8114 4.95392 45.6878 5.71939C45.881 5.77118 46.0495 5.89101 46.1628 6.05722C46.2761 6.22343 46.3268 6.42506 46.3057 6.62569C46.2845 6.82631 46.193 7.0127 46.0476 7.15116C45.9022 7.28963 45.7126 7.37105 45.5129 7.38071C42.5218 7.51915 41.4484 11.4827 41.436 11.5216C41.3887 11.7015 41.2837 11.8606 41.1375 11.9741C40.9913 12.0877 40.812 12.1493 40.6275 12.1493ZM39.0968 5.84978C39.9271 6.60613 40.5517 7.56438 40.9113 8.63329C41.4847 7.66457 42.2942 6.86013 43.2629 6.2966C42.4326 5.54026 41.8079 4.58201 41.4484 3.51309C40.8749 4.48214 40.0654 5.28704 39.0968 5.85124V5.84978Z" fill="#53C2EF"/>
</g>
<defs>
<clipPath id="clip0_234_4388">
<rect width="50" height="50" fill="white"/>
</clipPath>
</defs>
</svg>
