<svg width="50" height="50" viewBox="0 0 50 50" fill="none" xmlns="http://www.w3.org/2000/svg">
<g clip-path="url(#clip0_234_568)">
<mask id="mask0_234_568" style="mask-type:luminance" maskUnits="userSpaceOnUse" x="4" y="4" width="42" height="42">
<path d="M46 4H4V46H46V4Z" fill="white"/>
</mask>
<g mask="url(#mask0_234_568)">
<path d="M4.65626 46.0004H30.5224C30.6965 46.0004 30.8634 45.9312 30.9865 45.8082C31.1096 45.6851 31.1786 45.5182 31.1786 45.3441V39.0681C31.1887 38.1149 30.8937 37.1833 30.3367 36.4096C29.7796 35.6359 28.9897 35.0606 28.0825 34.7678L21.4544 32.5584V30.4654C21.4544 30.4427 21.4532 30.4203 21.451 30.3982C22.2899 29.7371 22.9473 28.8737 23.3613 27.8891C23.8408 27.8878 24.31 27.7502 24.7141 27.4922C25.1182 27.2343 25.4405 26.8667 25.6435 26.4324C25.8465 25.998 25.9218 25.515 25.8605 25.0394C25.7991 24.5639 25.6038 24.1157 25.2973 23.7471C25.395 23.295 25.559 22.4604 25.6297 21.9803C25.6513 21.8332 25.6727 21.6951 25.693 21.5645C25.8834 20.3378 25.9982 19.5973 25.2604 18.2081C24.4588 16.7 23.2334 15.4593 21.7354 14.6391C20.2373 13.8188 18.532 13.4547 16.8296 13.5916C15.1272 13.7286 13.502 14.3607 12.1544 15.41C10.8068 16.4593 9.79558 17.8798 9.24541 19.4967C9.23374 19.5311 9.22493 19.5663 9.21908 19.6021C9.0003 20.9372 9.18626 22.331 9.77058 23.7484C9.46464 24.1167 9.2697 24.5645 9.20847 25.0394C9.14723 25.5144 9.22224 25.9969 9.42473 26.4308C9.62722 26.8648 9.94887 27.2323 10.3522 27.4904C10.7555 27.7486 11.2239 27.8868 11.7028 27.889C12.1287 28.8967 12.8075 29.7774 13.6735 30.4459C13.6899 30.4586 13.7073 30.4705 13.724 30.483V32.5584L7.09587 34.7678C6.18865 35.0606 5.39887 35.636 4.8419 36.4097C4.28491 37.1834 3.98992 38.1149 4.00001 39.0681V45.3441C4.00001 45.5182 4.06915 45.6851 4.19222 45.8082C4.31529 45.9312 4.48221 46.0004 4.65626 46.0004ZM19.2019 37.2615L18.9379 38.77H16.2406L16.0047 37.4208C15.9927 37.3524 15.9699 37.2864 15.9371 37.2253L17.5894 36.0522L19.2145 37.2063C19.2098 37.2242 19.2052 37.2425 19.2019 37.2615ZM16.4196 40.0825H18.7599L19.565 44.6879H15.6136L16.4196 40.0825ZM29.8666 39.0681V44.6879H26.728V41.8163C26.728 41.6423 26.6589 41.4753 26.5358 41.3522C26.4127 41.2292 26.2458 41.16 26.0717 41.16C25.8977 41.16 25.7308 41.2292 25.6077 41.3522C25.4846 41.4753 25.4155 41.6423 25.4155 41.8163V44.6879H20.8974L20.0663 39.9365L20.397 38.0457L22.2756 39.3797C22.3738 39.4494 22.4893 39.4908 22.6094 39.4993C22.7295 39.5077 22.8496 39.483 22.9566 39.4278C23.0636 39.3725 23.1534 39.2889 23.216 39.1861C23.2787 39.0832 23.3118 38.9651 23.3118 38.8447V34.5608L27.6677 36.0127C28.3121 36.221 28.8731 36.6298 29.2686 37.1795C29.6641 37.7292 29.874 38.391 29.8666 39.0681ZM21.9998 34.1233V37.5737L18.7234 35.247L20.8469 33.7389L21.9998 34.1233ZM23.7684 26.5025C23.8998 25.7435 23.8912 24.9669 23.7434 24.2109C23.9818 24.2915 24.1894 24.4442 24.3373 24.6479C24.4851 24.8516 24.566 25.0961 24.5688 25.3479C24.5715 25.5995 24.496 25.8458 24.3526 26.0528C24.2092 26.2596 24.005 26.4168 23.7684 26.5025ZM10.5058 19.8677C10.9821 18.5012 11.8465 17.3033 12.9932 16.4206C14.1399 15.5379 15.5192 15.0088 16.962 14.898C18.4048 14.7872 19.8487 15.0996 21.1166 15.7969C22.3847 16.4942 23.4218 17.5461 24.1011 18.8239C24.6343 19.8274 24.5741 20.2145 24.396 21.3634C24.3753 21.4971 24.3534 21.6384 24.3311 21.7892C24.2863 22.0934 24.2008 22.553 24.1212 22.9528C23.873 22.8734 23.6138 22.833 23.3531 22.8331H23.3298C22.5878 20.3847 21.7497 19.1171 20.7003 18.8517C20.2402 18.7351 19.5233 18.7663 18.7225 19.5762C18.6846 19.6144 18.6515 19.6571 18.6241 19.7035C17.4239 21.7314 15.2806 22.6999 12.2551 22.5827C12.1516 22.5787 12.0487 22.5993 11.9548 22.6428C11.8608 22.6863 11.7785 22.7514 11.7146 22.8328C11.4291 22.8328 11.1458 22.8813 10.8767 22.9764C10.4785 21.9027 10.3537 20.8591 10.5058 19.8677ZM10.5001 25.3612C10.5005 25.1162 10.5749 24.877 10.7135 24.675C10.8521 24.4729 11.0485 24.3174 11.277 24.2288C11.147 24.9796 11.1502 25.7474 11.2864 26.4971C11.0557 26.4099 10.8568 26.2545 10.7164 26.0516C10.576 25.8488 10.5005 25.608 10.5001 25.3612ZM12.6962 23.9052H12.7484C15.9751 23.9052 18.315 22.7431 19.7091 20.4465C19.9059 20.2578 20.1655 20.0697 20.3786 20.124C20.5795 20.1748 21.3 20.5629 22.1362 23.4229C22.1431 23.4464 22.1513 23.4695 22.1608 23.4922C22.588 24.5129 22.6659 25.6462 22.3821 26.7157C22.0984 27.7853 21.4689 28.731 20.5919 29.4056C19.7149 30.0803 18.6394 30.4461 17.5328 30.4461C16.4263 30.446 15.3509 30.0802 14.4738 29.4055C13.6616 28.7715 13.058 27.9085 12.7411 26.928C12.4242 25.9476 12.4086 24.8946 12.6962 23.9052ZM17.5328 31.7568C18.4327 31.7567 19.3223 31.5648 20.1422 31.194V32.6293L17.5894 34.4422L15.0365 32.6293V31.2454C15.8253 31.5832 16.6746 31.7571 17.5328 31.7568ZM14.3324 33.7389L16.456 35.247L13.1793 37.5737V34.1233L14.3324 33.7389ZM5.31251 39.0681C5.30515 38.391 5.51453 37.7293 5.91006 37.1795C6.30559 36.6298 6.86653 36.221 7.51094 36.0128L11.8668 34.5608V38.8448C11.8668 38.9652 11.8999 39.0833 11.9626 39.1862C12.0252 39.289 12.115 39.3726 12.222 39.4279C12.329 39.4831 12.4491 39.5078 12.5692 39.4993C12.6893 39.4909 12.8048 39.4495 12.903 39.3798L14.7816 38.0459L15.1122 39.9366L14.2812 44.6879H9.76311V41.8163C9.76311 41.6423 9.69397 41.4753 9.5709 41.3522C9.44783 41.2292 9.28091 41.16 9.10686 41.16C8.93282 41.16 8.76589 41.2292 8.64282 41.3522C8.51975 41.4753 8.45061 41.6423 8.45061 41.8163V44.6879H5.31251V39.0681ZM46 18.5314C46 18.7054 45.9309 18.8724 45.8078 18.9954C45.6847 19.1185 45.5178 19.1877 45.3438 19.1877H28.061C27.887 19.1877 27.72 19.1185 27.597 18.9954C27.4739 18.8724 27.4047 18.7054 27.4047 18.5314C27.4047 18.3573 27.4739 18.1904 27.597 18.0674C27.72 17.9443 27.887 17.8752 28.061 17.8752H30.5517V13.79C30.5517 13.6159 30.6209 13.4491 30.7439 13.3259C30.867 13.2029 31.0339 13.1337 31.208 13.1337C31.382 13.1337 31.5489 13.2029 31.672 13.3259C31.7951 13.4491 31.8642 13.6159 31.8642 13.79V17.8752H34.2147V10.4574C34.2147 10.2833 34.2838 10.1164 34.4068 9.99335C34.53 9.87027 34.6968 9.80113 34.8709 9.80113C35.045 9.80113 35.2119 9.87027 35.335 9.99335C35.458 10.1164 35.5272 10.2833 35.5272 10.4574V17.8752H37.8776V11.9436C37.8776 11.7695 37.9467 11.6026 38.0698 11.4795C38.1929 11.3564 38.3598 11.2873 38.5338 11.2873C38.7079 11.2873 38.8748 11.3564 38.9979 11.4795C39.121 11.6026 39.1901 11.7695 39.1901 11.9436V17.8752H41.5406V8.56582C41.5406 8.39177 41.6098 8.22486 41.7328 8.10179C41.8559 7.97872 42.0228 7.90957 42.1969 7.90957C42.3709 7.90957 42.5378 7.97872 42.6609 8.10179C42.784 8.22486 42.8531 8.39177 42.8531 8.56582V17.8752H45.3438C45.5178 17.8752 45.6847 17.9443 45.8078 18.0674C45.9309 18.1904 46 18.3573 46 18.5314ZM41.7519 4.1742C41.8802 4.05801 42.0492 3.99717 42.222 4.00493C42.3949 4.0127 42.5577 4.08843 42.675 4.21565C42.7923 4.34287 42.8546 4.51128 42.8484 4.68422C42.8421 4.85716 42.7678 5.02063 42.6416 5.13905L38.9787 8.51677C38.8872 8.60113 38.7736 8.65774 38.6512 8.67999C38.5287 8.70224 38.4025 8.68922 38.2871 8.64245L35.007 7.31157L31.6496 10.366C31.5207 10.4821 31.3511 10.5424 31.1779 10.5338C31.0046 10.5252 30.8418 10.4483 30.725 10.32C30.6083 10.1917 30.5471 10.0224 30.5548 9.84913C30.5626 9.67583 30.6386 9.51264 30.7663 9.39525L34.4292 6.06256C34.5207 5.97924 34.6339 5.92347 34.7557 5.9017C34.8775 5.87993 35.003 5.89304 35.1177 5.93951L38.3949 7.26916L41.7519 4.1742ZM27.9184 24.6969C27.7727 24.7293 27.6424 24.8104 27.549 24.9269C27.4556 25.0434 27.4047 25.1881 27.4047 25.3374V26.9937C27.4047 27.143 27.4556 27.2878 27.549 27.4043C27.6424 27.5208 27.7727 27.6019 27.9184 27.6343L28.4217 27.7463C28.5048 28.0025 28.6081 28.2517 28.7307 28.4916L28.4538 28.9268C28.3737 29.0528 28.3389 29.2023 28.3552 29.3507C28.3715 29.4991 28.4379 29.6376 28.5435 29.7432L29.7147 30.9141C29.8202 31.0196 29.9586 31.086 30.107 31.1024C30.2554 31.1187 30.4049 31.0839 30.5309 31.0037L30.9661 30.727C31.2059 30.8496 31.4552 30.953 31.7115 31.036L31.8233 31.5392C31.8558 31.6849 31.9369 31.8152 32.0534 31.9086C32.1698 32.002 32.3147 32.053 32.4639 32.053H34.12C34.2693 32.053 34.4141 32.002 34.5306 31.9086C34.647 31.8152 34.7281 31.6849 34.7605 31.5392L34.8725 31.036C35.1288 30.953 35.3781 30.8496 35.618 30.727L36.0527 31.0037C36.1787 31.0839 36.3282 31.1187 36.4766 31.1024C36.625 31.086 36.7634 31.0196 36.8689 30.9141L38.0401 29.7432C38.1457 29.6376 38.2121 29.4991 38.2284 29.3507C38.2447 29.2023 38.2099 29.0528 38.1298 28.9268L37.8529 28.4916C37.9755 28.2517 38.0789 28.0025 38.162 27.7463L38.6651 27.6343C38.8109 27.6019 38.9412 27.5208 39.0346 27.4043C39.1281 27.2878 39.1789 27.143 39.1789 26.9937V25.3373C39.1789 25.188 39.1281 25.0431 39.0346 24.9267C38.9412 24.8103 38.8109 24.7291 38.6651 24.6967L38.1619 24.5848C38.0788 24.3285 37.9755 24.0793 37.8529 23.8395L38.1298 23.4042C38.2099 23.2782 38.2447 23.1287 38.2283 22.9803C38.212 22.8319 38.1456 22.6935 38.04 22.5879L36.869 21.4169C36.7635 21.3114 36.625 21.245 36.4766 21.2287C36.3282 21.2124 36.1787 21.2472 36.0527 21.3273L35.618 21.6041C35.378 21.4815 35.1287 21.3782 34.8725 21.295L34.7605 20.7918C34.7281 20.6461 34.647 20.5158 34.5305 20.4225C34.4141 20.3291 34.2693 20.2782 34.12 20.2782H32.4639C32.3147 20.2782 32.1698 20.3291 32.0534 20.4225C31.937 20.5158 31.8558 20.6461 31.8233 20.7918L31.7115 21.295C31.4552 21.3781 31.2059 21.4815 30.9661 21.6041L30.5309 21.3273C30.4049 21.2472 30.2554 21.2124 30.107 21.2287C29.9586 21.245 29.8202 21.3114 29.7146 21.4169L28.5438 22.5879C28.4381 22.6935 28.3717 22.8319 28.3554 22.9803C28.3391 23.1287 28.3739 23.2782 28.454 23.4042L28.7309 23.8395C28.6082 24.0793 28.5049 24.3286 28.4218 24.5849L27.9184 24.6969ZM28.7172 25.8638L29.0898 25.781C29.2103 25.7541 29.3208 25.6939 29.4086 25.6072C29.4963 25.5204 29.5579 25.4107 29.5861 25.2905C29.6799 24.8924 29.8376 24.5121 30.0532 24.1645C30.1182 24.0595 30.1523 23.9384 30.1515 23.8149C30.1508 23.6915 30.1153 23.5708 30.0491 23.4666L29.844 23.144L30.2705 22.7175L30.5932 22.9225C30.6973 22.9887 30.8179 23.0241 30.9412 23.0249C31.0645 23.0256 31.1855 22.9916 31.2904 22.9267C31.6381 22.7111 32.0184 22.5534 32.4166 22.4597C32.5368 22.4314 32.6465 22.3699 32.7333 22.2822C32.82 22.1944 32.8803 22.084 32.9071 21.9635L32.9898 21.5908H33.5933L33.6761 21.9635C33.7029 22.084 33.7632 22.1944 33.8499 22.2822C33.9367 22.37 34.0464 22.4315 34.1666 22.4598C34.5648 22.5534 34.9452 22.7111 35.2928 22.9268C35.3977 22.9917 35.5187 23.0257 35.6421 23.0249C35.7654 23.0241 35.886 22.9887 35.99 22.9225L36.3127 22.7175L36.7392 23.144L36.5342 23.4666C36.4679 23.5708 36.4324 23.6915 36.4317 23.8149C36.4309 23.9384 36.465 24.0595 36.53 24.1645C36.7456 24.5121 36.9034 24.8924 36.997 25.2907C37.0253 25.4108 37.0869 25.5206 37.1747 25.6072C37.2625 25.6939 37.3729 25.7542 37.4933 25.781L37.866 25.8638V26.4672L37.4933 26.5501C37.3729 26.5769 37.2624 26.6371 37.1746 26.7239C37.0869 26.8107 37.0253 26.9203 36.997 27.0405C36.9034 27.4387 36.7456 27.819 36.53 28.1666C36.465 28.2715 36.4309 28.3927 36.4317 28.5161C36.4324 28.6396 36.4679 28.7603 36.5342 28.8645L36.7392 29.187L36.3127 29.6136L35.99 29.4085C35.8859 29.3423 35.7653 29.3069 35.642 29.3062C35.5187 29.3055 35.3977 29.3395 35.2928 29.4044C34.9451 29.62 34.5648 29.7777 34.1666 29.8713C34.0465 29.8995 33.9367 29.9611 33.85 30.0489C33.7633 30.1367 33.703 30.2472 33.6762 30.3676L33.5934 30.7402H32.9899L32.9072 30.3676C32.8803 30.2471 32.8201 30.1366 32.7333 30.0488C32.6465 29.961 32.5368 29.8995 32.4166 29.8713C32.0184 29.7776 31.6381 29.6199 31.2905 29.4043C31.1856 29.3394 31.0645 29.3054 30.9413 29.3062C30.8179 29.3069 30.6973 29.3423 30.5932 29.4085L30.2706 29.6136L29.844 29.187L30.0491 28.8645C30.1153 28.7603 30.1509 28.6396 30.1517 28.5161C30.1524 28.3927 30.1183 28.2715 30.0533 28.1666C29.8377 27.8189 29.6799 27.4386 29.5862 27.0403C29.5579 26.9202 29.4964 26.8105 29.4086 26.7239C29.3208 26.6371 29.2104 26.5769 29.0899 26.5501L28.7172 26.4672L28.7172 25.8638ZM33.2919 28.9461C33.842 28.9461 34.3796 28.783 34.8369 28.4774C35.2942 28.1719 35.6507 27.7375 35.8612 27.2294C36.0716 26.7213 36.1267 26.1621 36.0194 25.6227C35.9121 25.0833 35.6472 24.5877 35.2583 24.1989C34.8694 23.81 34.3739 23.5451 33.8345 23.4378C33.295 23.3305 32.7359 23.3856 32.2278 23.596C31.7197 23.8065 31.2853 24.163 30.9798 24.6203C30.6742 25.0776 30.5111 25.6152 30.5111 26.1653C30.5119 26.9025 30.8051 27.6094 31.3265 28.1307C31.8478 28.652 32.5547 28.9453 33.2919 28.9461ZM33.2919 24.6969C33.5824 24.6969 33.8663 24.783 34.1077 24.9443C34.3492 25.1057 34.5374 25.335 34.6485 25.6033C34.7597 25.8716 34.7888 26.1669 34.7321 26.4517C34.6754 26.7365 34.5356 26.9982 34.3303 27.2035C34.1249 27.4089 33.8633 27.5487 33.5785 27.6054C33.2936 27.662 32.9984 27.6329 32.7301 27.5218C32.4617 27.4107 32.2324 27.2225 32.0711 26.981C31.9097 26.7395 31.8236 26.4556 31.8236 26.1653C31.824 25.7759 31.9789 25.4027 32.2541 25.1274C32.5294 24.8521 32.9027 24.6973 33.2919 24.6969Z" fill="#53C2EF"/>
</g>
</g>
<defs>
<clipPath id="clip0_234_568">
<rect width="42" height="42" fill="white" transform="translate(4 4)"/>
</clipPath>
</defs>
</svg>
