<svg width="16" height="25" viewBox="0 0 16 25" fill="none" xmlns="http://www.w3.org/2000/svg">
<path d="M7.34532 24.1452C7.4851 24.2899 7.66529 24.389 7.86234 24.4296C8.05939 24.4702 8.26412 24.4504 8.44973 24.3728C8.63534 24.2952 8.79319 24.1634 8.90264 23.9946C9.01208 23.8258 9.06802 23.6279 9.06313 23.4268V3.88005L13.3731 8.12651C13.462 8.22254 13.5694 8.29963 13.6888 8.35319C13.8082 8.40674 13.9371 8.43565 14.068 8.43818C14.1988 8.44071 14.3288 8.41682 14.4502 8.36792C14.5715 8.31902 14.6818 8.24613 14.7743 8.15362C14.8668 8.0611 14.9397 7.95087 14.9886 7.82951C15.0375 7.70816 15.0614 7.57818 15.0589 7.44737C15.0564 7.31656 15.0275 7.18761 14.9739 7.06823C14.9203 6.94886 14.8432 6.84153 14.7472 6.75266L8.75135 0.757658C8.67904 0.641205 8.569 0.553043 8.43957 0.507868C8.19668 0.424583 7.93297 0.424583 7.69009 0.507868C7.56065 0.553043 7.45061 0.641205 7.3783 0.757658L1.38246 6.75266C1.2675 6.82903 1.17271 6.93205 1.10615 7.05294C1.0396 7.17384 1.00325 7.30902 1.00021 7.44699C0.997166 7.58495 1.02752 7.72161 1.08868 7.84532C1.14984 7.96903 1.24 8.07612 1.35148 8.15749C1.43285 8.26895 1.53996 8.35909 1.66369 8.42025C1.78742 8.4814 1.92409 8.51175 2.06208 8.50871C2.20006 8.50567 2.33527 8.46932 2.45618 8.40278C2.57709 8.33623 2.68012 8.24145 2.7565 8.12651L7.06452 3.88005V23.4268C7.05983 23.5593 7.08233 23.6914 7.13062 23.815C7.17891 23.9385 7.25198 24.0509 7.34532 24.1452Z" fill="#013A65"/>
</svg>
