<svg width="16" height="17" viewBox="0 0 16 17" fill="none" xmlns="http://www.w3.org/2000/svg">
<path d="M11.021 3.21191H10.5732V2.75879C10.5732 2.4999 10.3633 2.29004 10.1044 2.29004C9.84555 2.29004 9.63569 2.4999 9.63569 2.75879V3.21191H5.03662V2.75879C5.03662 2.4999 4.82676 2.29004 4.56787 2.29004C4.30898 2.29004 4.09912 2.4999 4.09912 2.75879V3.21191H3.65135C2.37328 3.21191 1.3335 4.25169 1.3335 5.52974V11.9721C1.3335 13.2502 2.37328 14.29 3.65135 14.29H11.021C12.2991 14.29 13.3388 13.2502 13.3388 11.9721V5.52974C13.3388 4.25169 12.2991 3.21191 11.021 3.21191ZM3.65135 4.14941H4.09912V5.06347C4.09912 5.32236 4.30898 5.53222 4.56787 5.53222C4.82676 5.53222 5.03662 5.32236 5.03662 5.06347V4.14941H9.63571V5.06347C9.63571 5.32236 9.84557 5.53222 10.1045 5.53222C10.3634 5.53222 10.5732 5.32236 10.5732 5.06347V4.14941H11.021C11.7821 4.14941 12.4013 4.76863 12.4013 5.52974V5.97753H2.271V5.52974C2.271 4.76863 2.89021 4.14941 3.65135 4.14941ZM11.021 13.3525H3.65135C2.89021 13.3525 2.271 12.7333 2.271 11.9721V6.91503H12.4013V11.9721C12.4013 12.7333 11.7821 13.3525 11.021 13.3525ZM5.49757 8.75879C5.49757 9.01768 5.28771 9.22754 5.02882 9.22754H4.10695C3.84806 9.22754 3.6382 9.01768 3.6382 8.75879C3.6382 8.4999 3.84806 8.29004 4.10695 8.29004H5.02882C5.28768 8.29004 5.49757 8.4999 5.49757 8.75879ZM11.0342 8.75879C11.0342 9.01768 10.8243 9.22754 10.5654 9.22754H9.64354C9.38465 9.22754 9.17479 9.01768 9.17479 8.75879C9.17479 8.4999 9.38465 8.29004 9.64354 8.29004H10.5654C10.8243 8.29004 11.0342 8.4999 11.0342 8.75879ZM8.26319 8.75879C8.26319 9.01768 8.05333 9.22754 7.79444 9.22754H6.87257C6.61368 9.22754 6.40382 9.01768 6.40382 8.75879C6.40382 8.4999 6.61368 8.29004 6.87257 8.29004H7.79444C8.05331 8.29004 8.26319 8.4999 8.26319 8.75879ZM5.49757 11.5244C5.49757 11.7833 5.28771 11.9931 5.02882 11.9931H4.10695C3.84806 11.9931 3.6382 11.7833 3.6382 11.5244C3.6382 11.2655 3.84806 11.0556 4.10695 11.0556H5.02882C5.28768 11.0556 5.49757 11.2655 5.49757 11.5244ZM11.0342 11.5244C11.0342 11.7833 10.8243 11.9931 10.5654 11.9931H9.64354C9.38465 11.9931 9.17479 11.7833 9.17479 11.5244C9.17479 11.2655 9.38465 11.0556 9.64354 11.0556H10.5654C10.8243 11.0556 11.0342 11.2655 11.0342 11.5244ZM8.26319 11.5244C8.26319 11.7833 8.05333 11.9931 7.79444 11.9931H6.87257C6.61368 11.9931 6.40382 11.7833 6.40382 11.5244C6.40382 11.2655 6.61368 11.0556 6.87257 11.0556H7.79444C8.05331 11.0556 8.26319 11.2655 8.26319 11.5244Z" fill="#53C2EF"/>
</svg>
