<svg width="22" height="24" viewBox="0 0 22 24" fill="none" xmlns="http://www.w3.org/2000/svg">
<path d="M3.1047 8.19991L7.60378 4.86991C7.75071 4.76239 7.92277 4.70508 8.09868 4.70508C8.2746 4.70508 8.44666 4.76239 8.59358 4.86991L13.0027 8.12991C13.1496 8.23744 13.3217 8.29475 13.4976 8.29475C13.6735 8.29475 13.8456 8.23744 13.9925 8.12991L17.5018 5.53991C17.6371 5.44086 17.794 5.38427 17.9559 5.3761C18.1178 5.36793 18.2786 5.40849 18.4215 5.49351C18.5643 5.57852 18.6839 5.70482 18.7675 5.85908C18.8511 6.01334 18.8957 6.18983 18.8965 6.36991V14.9999C18.8972 15.1663 18.8606 15.3303 18.7899 15.477C18.7192 15.6236 18.6166 15.7484 18.4916 15.8399L13.9925 19.1699C13.8456 19.2774 13.6735 19.3347 13.4976 19.3347C13.3217 19.3347 13.1496 19.2774 13.0027 19.1699L8.59358 15.9099C8.44666 15.8024 8.2746 15.7451 8.09868 15.7451C7.92277 15.7451 7.75071 15.8024 7.60378 15.9099L4.0945 18.4999C3.95661 18.601 3.79634 18.6579 3.63126 18.6645C3.46618 18.6711 3.30266 18.627 3.15861 18.5372C3.01457 18.4473 2.89556 18.3151 2.81462 18.1551C2.73369 17.9951 2.69396 17.8134 2.69978 17.6299V8.99991C2.70489 8.84032 2.74432 8.68442 2.81477 8.54523C2.88521 8.40605 2.98463 8.28764 3.1047 8.19991Z" stroke="#858D9D" stroke-width="1.5" stroke-linecap="round" stroke-linejoin="round"/>
<path d="M8.09766 4.7002V15.7002" stroke="#858D9D" stroke-width="1.5" stroke-linecap="round" stroke-linejoin="round"/>
<path d="M13.498 8.2998V19.2998" stroke="#858D9D" stroke-width="1.5" stroke-linecap="round" stroke-linejoin="round"/>
</svg>
