<svg width="32" height="33" viewBox="0 0 32 33" fill="none" xmlns="http://www.w3.org/2000/svg">
<path d="M19.0857 19.3758C16.5714 21.97 16.3886 25.2043 16.1714 32.29C22.7771 32.29 27.3371 32.2672 29.6914 29.9815C31.9771 27.6272 32 22.85 32 16.4615C24.9143 16.69 21.68 16.8615 19.0857 19.3758ZM0 16.4615C0 22.85 0.0228571 27.6272 2.30857 29.9815C4.66286 32.2672 9.22286 32.29 15.8286 32.29C15.6 25.2043 15.4286 21.97 12.9143 19.3758C10.32 16.8615 7.08571 16.6786 0 16.4615ZM15.8286 0.290039C9.23429 0.290039 4.66286 0.312896 2.30857 2.59861C0.0228571 4.9529 0 9.73004 0 16.1186C7.08571 15.89 10.32 15.7186 12.9143 13.2043C15.4286 10.61 15.6114 7.37575 15.8286 0.290039ZM19.0857 13.2043C16.5714 10.61 16.3886 7.37575 16.1714 0.290039C22.7771 0.290039 27.3371 0.312896 29.6914 2.59861C31.9771 4.9529 32 9.73004 32 16.1186C24.9143 15.89 21.68 15.7186 19.0857 13.2043Z" fill="white"/>
</svg>
