<svg width="24" height="14" viewBox="0 0 24 14" fill="none" xmlns="http://www.w3.org/2000/svg">
<path d="M0.755859 7.00549C0.756339 7.12518 0.776255 7.244 0.814828 7.35731C0.857177 7.4787 0.939682 7.58201 1.0487 7.65015L6.67073 13.2722C6.74185 13.3806 6.83827 13.4701 6.95169 13.533C7.06511 13.5959 7.19212 13.6302 7.32176 13.6331C7.45141 13.6359 7.57981 13.6072 7.69588 13.5494C7.81195 13.4916 7.91222 13.4064 7.98804 13.3012C8.09324 13.2254 8.17843 13.1251 8.23625 13.009C8.29408 12.8929 8.3228 12.7645 8.31995 12.6349C8.3171 12.5052 8.28275 12.3782 8.21988 12.2648C8.15701 12.1514 8.06749 12.055 7.95905 11.9839L3.97716 7.942H22.3075C22.4331 7.9461 22.5583 7.9249 22.6755 7.87966C22.7928 7.83442 22.8998 7.76606 22.9901 7.67864C23.0804 7.59123 23.1522 7.48655 23.2013 7.37082C23.2503 7.25509 23.2756 7.13068 23.2756 7.00499C23.2756 6.8793 23.2503 6.75489 23.2013 6.63917C23.1522 6.52344 23.0804 6.41876 22.9901 6.33134C22.8998 6.24393 22.7928 6.17557 22.6755 6.13033C22.5583 6.08508 22.4331 6.06389 22.3075 6.06799H3.97716L7.95905 2.02712C8.06749 1.95601 8.15701 1.85958 8.21988 1.74617C8.28275 1.63275 8.3171 1.50574 8.31995 1.37609C8.3228 1.24645 8.29408 1.11805 8.23625 1.00198C8.17843 0.885904 8.09324 0.785636 7.98804 0.70982C7.91222 0.604613 7.81195 0.519426 7.69588 0.461603C7.57981 0.40378 7.45141 0.375057 7.32176 0.37791C7.19212 0.380762 7.06511 0.415105 6.95169 0.477978C6.83827 0.54085 6.74185 0.630365 6.67073 0.738804L1.0487 6.36083C0.939682 6.42898 0.857177 6.53229 0.814828 6.65368C0.776255 6.76698 0.756339 6.8858 0.755859 7.00549Z" fill="black"/>
</svg>
