<svg width="24" height="14" viewBox="0 0 24 14" fill="none" xmlns="http://www.w3.org/2000/svg">
<path d="M23.2441 7.00452C23.2437 6.88483 23.2237 6.76601 23.1852 6.6527C23.1428 6.53131 23.0603 6.428 22.9513 6.35986L17.3293 0.737826C17.2581 0.629388 17.1617 0.539872 17.0483 0.477C16.9349 0.414127 16.8079 0.379785 16.6782 0.376932C16.5486 0.37408 16.4202 0.402802 16.3041 0.460626C16.188 0.518449 16.0878 0.603636 16.012 0.708841C15.9068 0.784658 15.8216 0.884927 15.7637 1.001C15.7059 1.11707 15.6772 1.24547 15.6801 1.37512C15.6829 1.50476 15.7172 1.63177 15.7801 1.74519C15.843 1.85861 15.9325 1.95503 16.0409 2.02615L20.0228 6.06801H1.69253C1.5669 6.06391 1.44174 6.08511 1.32447 6.13035C1.2072 6.17559 1.10023 6.24395 1.00992 6.33137C0.9196 6.41878 0.847784 6.52346 0.798737 6.63919C0.749691 6.75492 0.724417 6.87932 0.724417 7.00502C0.724417 7.13071 0.749691 7.25512 0.798737 7.37084C0.847784 7.48657 0.9196 7.59125 1.00992 7.67867C1.10023 7.76608 1.2072 7.83444 1.32447 7.87968C1.44174 7.92492 1.5669 7.94612 1.69253 7.94202H20.0228L16.0409 11.9829C15.9325 12.054 15.843 12.1504 15.7801 12.2638C15.7172 12.3773 15.6829 12.5043 15.6801 12.6339C15.6772 12.7636 15.7059 12.892 15.7637 13.008C15.8216 13.1241 15.9068 13.2244 16.012 13.3002C16.0878 13.4054 16.188 13.4906 16.3041 13.5484C16.4202 13.6062 16.5486 13.635 16.6782 13.6321C16.8079 13.6292 16.9349 13.5949 17.0483 13.532C17.1617 13.4692 17.2581 13.3796 17.3293 13.2712L22.9513 7.64918C23.0603 7.58103 23.1428 7.47772 23.1852 7.35633C23.2237 7.24303 23.2437 7.12421 23.2441 7.00452Z" fill="black"/>
</svg>
