<svg width="13" height="13" viewBox="0 0 13 13" fill="none" xmlns="http://www.w3.org/2000/svg">
<path d="M6.46094 0.816406C6.57031 0.679688 6.78906 0.679688 6.92578 0.816406L12.6406 6.53125C12.7773 6.66797 12.7773 6.85938 12.6406 6.99609L6.92578 12.7109C6.78906 12.8477 6.57031 12.8477 6.46094 12.7109L5.91406 12.1914C5.77734 12.0547 5.77734 11.8359 5.91406 11.7266L10.1523 7.46094H0.828125C0.636719 7.46094 0.5 7.32422 0.5 7.13281V6.36719C0.5 6.20312 0.636719 6.03906 0.828125 6.03906H10.1523L5.91406 1.80078C5.77734 1.69141 5.77734 1.47266 5.91406 1.33594L6.46094 0.816406Z" fill="#4B5E71"/>
</svg>
