<svg width="16" height="14" viewBox="0 0 16 14" fill="none" xmlns="http://www.w3.org/2000/svg">
<path d="M1.09992 5.70341C5.39487 3.83217 8.25885 2.59853 9.69185 2.00249C13.7834 0.300697 14.6335 0.00507745 15.1877 -0.00478818C15.3095 -0.00683104 15.582 0.0233734 15.7586 0.166606C15.9076 0.287549 15.9486 0.450926 15.9683 0.565593C15.9879 0.68026 16.0123 0.941475 15.9929 1.14558C15.7712 3.47521 14.8118 9.12861 14.3237 11.7378C14.1172 12.8419 13.7105 13.2121 13.3168 13.2483C12.4613 13.327 11.8116 12.6829 10.9829 12.1397C9.68624 11.2897 8.95369 10.7606 7.69503 9.93112C6.24042 8.97256 7.18338 8.44572 8.01236 7.58471C8.22931 7.35938 11.999 3.93058 12.0719 3.61953C12.0811 3.58063 12.0895 3.43562 12.0034 3.35905C11.9172 3.28249 11.7901 3.30867 11.6983 3.32949C11.5683 3.35901 9.4968 4.72819 5.48389 7.43701C4.89591 7.84077 4.36333 8.03749 3.88616 8.02718C3.36012 8.01582 2.34822 7.72975 1.59598 7.48523C0.673328 7.18531 -0.0599784 7.02674 0.00387615 6.51739C0.0371355 6.25208 0.402482 5.98076 1.09992 5.70341Z" fill="white"/>
</svg>
