<svg width="22" height="15" viewBox="0 0 22 15" fill="none" xmlns="http://www.w3.org/2000/svg">
<path d="M11.978 14.625C4.46154 14.625 0.175824 9.3792 0 0.636209H3.78022C3.9011 7.04774 6.67033 9.76031 8.86813 10.3208V0.636209H12.4176V6.16223C14.5824 5.92684 16.8681 3.40482 17.6374 0.625H21.1758C20.8873 2.06397 20.311 3.42679 19.4828 4.62832C18.6547 5.82984 17.5925 6.84426 16.3626 7.60819C17.7351 8.30496 18.9471 9.2906 19.9189 10.5001C20.8906 11.7096 21.5999 13.1155 22 14.625H18.0989C17.2637 11.9685 15.1758 9.90602 12.4176 9.6258V14.625H11.989H11.978Z" fill="white"/>
</svg>
